<svg fill="none" height="32" viewBox="0 0 32 32" width="32" xmlns="http://www.w3.org/2000/svg" xmlns:xlink="http://www.w3.org/1999/xlink"><linearGradient id="a" gradientUnits="userSpaceOnUse" x1="15.9203" x2="15.9203" y1=".001105" y2="31.9998"><stop offset="0" stop-color="#0dff36"/><stop offset="1" stop-color="#00cf7f"/></linearGradient><path clip-rule="evenodd" d="m11.0596.00055332c-.1547-.00040087-.308.02986068-.451.08904178-.143.0591809-.2729.1461119-.3822.2557769l-.27779.277098c-.6986.69695-1.17412 1.81334-1.27168 2.98599-.04108.71499.0702 1.43055.32648 2.09919.25629.66864.6517 1.27508 1.15999 1.77907l1.174 1.17115-3.61013 3.60213c-1.17672 1.1726-1.77267 2.4436-1.72458 3.6753.06018 1.2266.57623 2.3863 1.4468 3.2514l12.49771 12.4687c.2214.2208.5211.3446.8336.3446s.6121-.1238.8336-.3446l.2769-.2772c.7-.6969 1.1754-1.8132 1.2719-2.9859.0854-1.0206-.2687-2.6646-1.5488-3.9411l-1.1111-1.1085 3.6103-3.6021c1.1753-1.1723 1.7718-2.4441 1.7237-3.6758-.0602-1.2262-.5757-2.3857-1.4455-3.2513l-12.4988-12.46868c-.1093-.109665-.2392-.196595-.3822-.2557763-.143-.0591811-.2964-.08889125-.4512-.08849038zm4.0151 19.28154668.1516 1.5665 4.721-4.7105-2.9553-2.9483c-.1247-.1255-.2032-.2895-.2229-.4653l-.1547-1.5739-4.7216 4.7116 2.9597 2.9517c.125.1263.2034.2914.2222.4682z" fill="url(#a)" fill-rule="evenodd"/></svg>