<svg fill="none" height="32" viewBox="0 0 32 32" width="32" xmlns="http://www.w3.org/2000/svg" xmlns:xlink="http://www.w3.org/1999/xlink"><linearGradient id="a" gradientUnits="userSpaceOnUse" x1="15.9203" x2="15.9203" y1=".000556" y2="31.9998"><stop offset="0" stop-color="#0dff36"/><stop offset="1" stop-color="#00cf7f"/></linearGradient><clipPath id="b"><path d="m0 0h32v32h-32z"/></clipPath><g clip-path="url(#b)"><path clip-rule="evenodd" d="m11.0596.784123c.0516-.000069.1027.010043.1503.029759.0477.019715.091.048646.1275.085136l12.4976 12.468682c.7312.7256 1.1656 1.6983 1.2181 2.7277.0442 1.1331-.6062 2.2043-1.495 3.0912l-4.1663 4.1561 1.6664 1.6626c1.0944 1.0917 1.3893 2.5117 1.3218 3.3221-.084 1.0083-.4974 1.9512-1.044 2.4964l-.2778.2772c-.0737.0734-.1736.1147-.2776.1147-.1041 0-.204-.0413-.2777-.1147l-12.49769-12.4687c-.73128-.7256-1.16528-1.6984-1.21683-2.7277-.04423-1.1332.60558-2.2044 1.49462-3.0913l4.165-4.15586-1.7294-1.72533c-.429-.42267-.76318-.93195-.98029-1.49393-.2171-.56199-.31216-1.16381-.27886-1.76544.08406-1.00824.48888-1.94258 1.04445-2.49649l.2777-.276959c.0364-.036489.0798-.065417.1274-.085131.0477-.019715.0988-.029827.1503-.02976zm4.1658 20.065277 4.722-4.7113-2.9554-2.9483c-.1246-.1255-.2032-.2895-.2229-.4653l-.1547-1.5739-4.7216 4.7116 2.9597 2.9517c.125.1263.2034.2914.2222.4682l.1516 1.5667zm-4.1658-20.84884466c-.1547-.00040087-.308.02986066-.451.08904176-.143.0591809-.2729.1461119-.3822.2557769l-.27778.277098c-.69861.696948-1.17413 1.813338-1.27168 2.985988-.04109.715.07019 1.43055.32648 2.09919s.65169 1.27509 1.15998 1.77907l1.174 1.17115-3.61013 3.60213c-1.17672 1.1726-1.77267 2.4436-1.72457 3.6753.06017 1.2266.57622 2.3863 1.4468 3.2514l12.4977 12.4687c.2214.2208.5211.3446.8336.3446s.6122-.1238.8336-.3446l.277-.2772c.7-.6969 1.1753-1.8132 1.2718-2.9859.0854-1.0206-.2686-2.6646-1.5488-3.9411l-1.111-1.1085 3.6102-3.6021c1.1754-1.1723 1.7718-2.4441 1.7237-3.6758-.0602-1.2262-.5757-2.3857-1.4455-3.2513l-12.4988-12.468678c-.1093-.109665-.2392-.196595-.3822-.2557762s-.2963-.08944274-.451-.08904187zm1.9441 15.86164466 2.9936-2.9862c.0507.3277.2037.631.4368.8667l2.4022 2.3954-2.9909 2.984c-.0515-.3248-.2032-.6251-.4339-.8591z" fill="url(#a)" fill-rule="evenodd"/></g></svg>